<svg width="653" height="381" viewBox="0 0 653 381" xmlns="http://www.w3.org/2000/svg"><title>Artboard</title><desc>Created with Sketch.</desc><g fill="none"><path d="M641.987 144.054c-4.699-5.618-12.181-10.381-22.245-14.155l-20.549-7.706c-9.348-3.605-15.624-6.893-18.659-9.776-2.727-2.584-4.053-6.268-4.053-11.262 0-6.244 1.96-10.785 5.996-13.885 4.225-3.244 10.688-4.89 19.207-4.89 10.764 0 23.082 2.201 36.609 6.54.307.1.624.147.942.147.645 0 1.283-.202 1.817-.591.799-.581 1.27-1.509 1.27-2.494v-12.089c0-1.226-.729-2.337-1.852-2.829-5.655-2.47-11.913-4.437-18.603-5.85-6.705-1.407-13.238-2.121-19.412-2.121-13.531 0-24.708 3.569-33.216 10.61-8.678 7.186-13.077 16.682-13.077 28.223 0 16.953 9.935 29.262 29.525 36.583l23.413 8.745c7.447 2.758 12.749 5.643 15.763 8.578 2.745 2.676 4.081 5.822 4.081 9.619 0 7.107-2.295 12.32-7.018 15.938-4.911 3.76-12.327 5.666-22.042 5.666-12.959 0-27.059-2.708-41.905-8.049-.338-.122-.69-.181-1.043-.181-.627 0-1.248.19-1.775.56-.82.579-1.312 1.521-1.312 2.525v12.087c0 1.169.663 2.238 1.706 2.761 12.722 6.359 27.289 9.584 43.3 9.584 15.222 0 27.508-3.643 36.518-10.833 9.216-7.353 13.89-17.465 13.89-30.058 0-8.422-2.448-15.622-7.276-21.397m-103.054 37.6c-.251 0-.502.03-.75.091-7.939 1.986-15.39 2.994-22.14 2.994-6.167 0-10.507-1.177-12.896-3.498-2.362-2.299-3.562-6.572-3.562-12.705v-82.556h38.064c1.706 0 3.087-1.381 3.087-3.085v-12.858c0-1.704-1.381-3.085-3.087-3.085h-38.064v-34.464c0-1.704-1.381-3.086-3.087-3.086h-12.086c-1.64 0-2.993 1.28-3.081 2.918l-1.915 35.15-22.042 2.065c-1.584.148-2.797 1.48-2.797 3.073v10.287c0 1.704 1.381 3.085 3.087 3.085h21.09v83.329c0 11.079 2.982 19.724 8.856 25.696 5.892 5.988 14.421 9.023 25.349 9.023 10.462 0 19.591-1.546 27.132-4.598 1.165-.471 1.929-1.603 1.929-2.86v-11.831c0-.95-.439-1.847-1.189-2.433-.548-.427-1.218-.652-1.898-.652m-95.74-114.938c-4.221-.527-7.897-.794-10.929-.794-8.309 0-15.896 1.616-22.551 4.802-5.03 2.412-10.162 6.118-15.307 11.054l-.987-11.994c-.132-1.601-1.472-2.833-3.077-2.833h-12.857c-1.706 0-3.087 1.382-3.087 3.086v129.362c0 1.704 1.381 3.085 3.087 3.085h14.657c1.706 0 3.087-1.381 3.087-3.085v-97.335c5.125-5.724 10.458-9.936 15.865-12.528 5.637-2.7 12.24-4.069 19.625-4.069 3.481 0 7.468.171 11.857.504l.233.009c.775 0 1.525-.291 2.097-.822.631-.584.99-1.404.99-2.263v-13.116c0-1.556-1.161-2.869-2.703-3.063m-150.951 119.053c-7.542 0-13.224-1.788-16.897-5.314-3.687-3.537-5.48-8.698-5.48-15.776 0-16.613 10.768-24.69 32.919-24.69 9.763 0 19.959 1.322 30.347 3.93v28.035c-7.004 4.238-14.002 7.601-20.828 10.004-7.172 2.529-13.922 3.811-20.061 3.811m49.732-112.402c-7.838-6.818-19.81-10.273-35.587-10.273-8.048 0-16.395.886-24.809 2.636-8.413 1.754-16.066 4.159-22.743 7.149-1.113.497-1.828 1.599-1.828 2.816v12.087c0 1.001.485 1.94 1.305 2.519.526.375 1.151.568 1.782.567.346 0 .691-.058 1.022-.175 15.202-5.344 29.65-8.054 42.955-8.054 10.635 0 18.24 2.021 22.607 6.007 4.284 3.915 6.453 10.721 6.453 20.224v17.501c-11.825-3.251-23.141-4.897-33.689-4.897-15.422 0-27.857 3.877-36.962 11.523-9.265 7.782-13.963 18.528-13.963 31.94 0 12.125 3.819 21.997 11.347 29.343 7.507 7.322 17.71 11.034 30.32 11.034 15.111 0 29.786-5.039 43.697-14.989l.806 9.339c.136 1.596 1.472 2.821 3.073 2.821h13.116c1.706 0 3.087-1.382 3.087-3.086v-94.899c0-13.732-4.036-24.205-11.989-31.133m-148.317-10.273c-9.052 0-18.442 1.702-27.91 5.063-7.639 2.714-15.1 6.342-22.241 10.81v-69.882c0-1.704-1.381-3.085-3.087-3.085h-14.657c-1.706 0-3.087 1.381-3.087 3.085v190.314c0 1.704 1.381 3.086 3.087 3.086h14.657c1.706 0 3.087-1.382 3.087-3.086v-101.729c15.275-9.975 31.102-15.031 47.064-15.031 8.434 0 14.563 2.185 18.219 6.495 3.781 4.465 5.7 11.97 5.7 22.309v87.956c0 1.704 1.381 3.086 3.087 3.086h14.658c1.705 0 3.087-1.382 3.087-3.086v-94.129c0-13.642-3.635-24.198-10.807-31.373-7.175-7.168-17.556-10.803-30.857-10.803m-93.727 116.76c-.324 0-.649.051-.963.153-11.124 3.653-21.355 5.505-30.414 5.505-14.769 0-25.666-3.926-32.388-11.67-6.837-7.87-10.305-20.471-10.305-37.453v-3.086c0-17.488 3.419-30.26 10.165-37.959 6.638-7.578 17.755-11.42 33.041-11.42 9.743 0 19.283 1.506 28.359 4.477.314.103.639.151.96.151.642 0 1.276-.2 1.81-.586.802-.58 1.277-1.51 1.277-2.499v-12.087c0-1.226-.729-2.337-1.852-2.829-9.775-4.266-20.313-6.429-31.325-6.429-20.706 0-36.794 6.182-47.81 18.377-10.939 12.102-16.485 29.714-16.485 52.348 0 22.806 5.459 40.416 16.227 52.345 10.845 12.025 26.846 18.121 47.555 18.121 11.18 0 22.423-2.513 33.418-7.474 1.105-.498 1.817-1.599 1.817-2.813v-12.087c0-.989-.474-1.918-1.277-2.499-.533-.387-1.168-.586-1.81-.586" fill="#002E36"/><path d="M541.27 311.039c-58.919 43.061-144.165 65.707-217.472 65.38-102.746-.475-195.09-38.885-264.824-102.432-5.466-4.987-.537-11.749 6.059-7.878 75.332 44.321 168.628 71.219 265.11 71.658 65.084.296 136.698-12.873 202.658-40.484 9.948-4.172 18.217 6.618 8.469 13.756m25.926-31.854c-7.405-8.881-47.159-2.814-65.02-.085-5.41.815-6.407-3.885-1.619-7.483 31.117-23.395 83.485-18.6 89.794-11.314 6.349 7.362.316 59.904-28.72 85.817-4.465 3.984-8.893 2.084-7.02-3.056 6.173-16.978 19.998-54.993 12.585-63.879" fill="#30A5DE"/></g></svg>